<svg width="116" height="100" viewBox="0 0 116 100" fill="none" xmlns="http://www.w3.org/2000/svg">
<path d="M116 8.33334H99.4286V16.6667H107.714V91.6667H8.28571V16.6667H16.5714V8.33334H0V100H116V8.33334Z" fill="#231E2B"/>
<path d="M107.714 83.3333H8.28572V91.6667H107.714V83.3333Z" fill="#E2B436"/>
<path d="M107.714 75H8.28572V83.3333H107.714V75Z" fill="#F5F38E"/>
<path d="M107.714 66.6667H8.28572V75H107.714V66.6667Z" fill="#CF8934"/>
<path d="M82.8572 41.6667H74.5714V50H82.8572V41.6667Z" fill="#F5F38E"/>
<path d="M74.5714 41.6667H66.2857V50H74.5714V41.6667Z" fill="#CF8934"/>
<path d="M49.7143 41.6667H41.4286V50H49.7143V41.6667Z" fill="#CF8934"/>
<path d="M41.4286 41.6667H33.1429V50H41.4286V41.6667Z" fill="#F5F38E"/>
<path d="M91.1429 33.3333H82.8571V41.6667H91.1429V33.3333Z" fill="#F5F38E"/>
<path d="M74.5714 41.6667H82.8572V33.3333H91.1429V25H74.5714V41.6667Z" fill="#231E2B"/>
<path d="M74.5714 25H66.2857V41.6667H74.5714V25Z" fill="#F5F38E"/>
<path d="M49.7143 25H41.4286V41.6667H49.7143V25Z" fill="#F5F38E"/>
<path d="M33.1429 33.3333H24.8571V41.6667H33.1429V33.3333Z" fill="#F5F38E"/>
<path d="M99.4286 33.3334H91.1429V41.6667H82.8571V50H66.2857V16.6667H58V25H49.7143V50H33.1429V41.6667H24.8571V33.3334H16.5714V25H8.28572V66.6667H107.714V25H99.4286V33.3334Z" fill="#E2B436"/>
<path d="M99.4286 25H91.1429V33.3333H99.4286V25Z" fill="#F5F38E"/>
<path d="M33.1429 33.3333V41.6667H41.4286V25H24.8571V33.3333H33.1429Z" fill="#231E2B"/>
<path d="M24.8572 25H16.5714V33.3333H24.8572V25Z" fill="#F5F38E"/>
<path d="M107.714 16.6667H99.4286V25H107.714V16.6667Z" fill="#F5F38E"/>
<path d="M99.4286 16.6667H91.1429V25H99.4286V16.6667Z" fill="#231E2B"/>
<path d="M58 16.6667H66.2857V8.33334H49.7143V25H58V16.6667Z" fill="#F5F38E"/>
<path d="M49.7143 8.33334H41.4286V25H49.7143V8.33334Z" fill="#231E2B"/>
<path d="M24.8572 16.6667H16.5714V25H24.8572V16.6667Z" fill="#231E2B"/>
<path d="M16.5714 16.6667H8.28572V25H16.5714V16.6667Z" fill="#F5F38E"/>
<path d="M74.5714 8.33334H66.2857V25H74.5714V8.33334Z" fill="#231E2B"/>
<path d="M66.2857 0H49.7143V8.33333H66.2857V0Z" fill="#231E2B"/>
</svg>
